<?xml version="1.0" encoding="utf-8"?>
<!-- Uploaded to: SVG Repo, www.svgrepo.com, Generator: SVG Repo Mixer Tools -->
<svg width="800px" height="800px" viewBox="0 0 1024 1024" class="icon"  version="1.1" xmlns="http://www.w3.org/2000/svg"><path d="M 549.888 378.425 h -76.2311 V 145.408 c 0 -7.96445 6.48533 -14.4498 14.4498 -14.4498 h 47.3315 c 7.96445 0 14.4498 6.48533 14.4498 14.4498 v 233.017 Z" fill="#f7c194" /><path d="M 547.157 49.152 c -21.2765 42.3253 -20.8213 -37.7742 -35.4987 -43.008 c -1.36533 6.82667 -3.41333 13.5395 -6.25778 19.9111 c -5.57511 12.5155 -14.7911 17.9769 -22.8693 28.2169 c -12.8569 16.2702 -11.6053 42.6667 4.096 56.6613 c 18.7733 16.7253 49.0382 10.1262 59.5058 -12.6293 c 6.82667 -14.5635 2.16178 -33.6782 1.024 -49.152 Z" fill="#f9ad5a" /><path d="M 529.635 160.995 c 0 -5.46133 -4.43733 -9.89867 -9.89867 -9.89867 c -3.072 0 -5.80267 1.36533 -7.62311 3.52711 c -1.82045 -2.16178 -4.55111 -3.52711 -7.62311 -3.52711 c -5.46133 0 -9.89867 4.43733 -9.89867 9.89867 c 0 2.84445 1.36533 5.34755 3.18578 7.28178 l 14.336 13.7671 l 14.1085 -13.6533 c 1.82045 -1.82045 3.41333 -4.43733 3.41333 -7.39555 Z" fill="#db374b" /><path d="M 506.425 53.248 c -6.25778 13.9947 -23.2107 44.2595 1.59289 51.5413 c 5.46133 1.59289 12.4018 0.568889 15.9289 -4.32355 c 9.10222 -12.5155 -10.1262 -26.9653 -10.3538 -38.912 c -0.227555 0.227555 -3.072 4.89245 -3.18578 4.096 c -0.568889 -4.20978 -2.16178 -8.53333 -3.98222 -12.4018 Z" fill="#ea8500" /><path d="M 508.928 72.818 c -4.43733 8.07822 -13.9947 28.7858 0.910222 32.4267 c 8.64711 2.16178 13.6533 -5.12 9.78489 -11.9467 c -4.096 -7.39555 -11.0365 -10.8089 -10.6951 -20.48 Z" fill="#e5653e" /><path d="M 970.411 1021.95 h -932.978 V 837.973 c 0 -19.2285 15.7013 -34.9298 34.9298 -34.9298 h 863.118 c 19.2285 0 34.9298 15.7013 34.9298 34.9298 v 183.979 Z" fill="#ffd778" /><path d="M 845.255 803.043 h -682.667 V 614.627 c 0 -16.384 13.4258 -29.8098 29.8098 -29.8098 h 623.047 c 16.384 0 29.8098 13.4258 29.8098 29.8098 v 188.416 Z M 722.83 584.818 H 285.013 V 390.144 c 0 -13.1982 10.8089 -23.8933 23.8933 -23.8933 h 390.03 c 13.1982 0 23.8933 10.8089 23.8933 23.8933 V 584.818 Z" fill="#ffd778" /><path d="M 815.445 584.818 H 192.398 c -12.5155 0 -23.3245 7.85067 -27.7618 18.8871 C 183.751 633.742 217.315 691.769 256 699.847 c 60.3022 12.5155 81.1235 -47.9005 108.43 -46.7627 s 24.576 19.2285 53.1342 20.8213 c 26.8515 1.47911 41.7565 -46.6489 70.5422 -47.7867 c 28.7858 -1.13778 39.4809 70.8835 89.5431 64.0569 s 37.2053 -44.032 63.7155 -44.7147 c 26.5102 -0.796445 19.7973 51.5413 58.4818 52.6791 s 31.0613 -78.3929 64.7395 -78.848 s 28.4445 78.1653 51.2 80.4409 s 29.4685 -27.3067 29.4685 -27.3067 v -57.7991 c 0 -16.384 -13.4258 -29.8098 -29.8098 -29.8098 Z" fill="#fcb429" /><path d="M 815.787 685.966 c -22.7555 -2.27555 -17.408 -80.896 -51.2 -80.4409 s -26.0551 79.9858 -64.7395 78.848 s -31.9715 -53.4755 -58.4818 -52.6791 c -26.5102 0.796445 -13.6533 37.888 -63.7155 44.7147 s -60.6435 -65.1947 -89.5431 -64.0569 s -43.6907 49.2658 -70.5422 47.7867 c -28.4445 -1.59289 -25.8275 -19.6835 -53.1342 -20.8213 S 316.302 698.595 256 686.08 c -36.0675 -7.50933 -67.584 -58.368 -87.1538 -89.5431 c -1.70667 2.16178 -3.072 4.66489 -4.096 7.28178 C 183.751 633.742 217.315 691.769 256 699.847 c 60.3022 12.5155 81.1235 -47.9005 108.43 -46.7627 s 24.576 19.2285 53.1342 20.8213 c 26.8515 1.47911 41.7565 -46.6489 70.5422 -47.7867 s 39.4809 70.8835 89.5431 64.0569 s 37.2053 -44.032 63.7155 -44.7147 c 26.5102 -0.796445 19.7973 51.5413 58.4818 52.6791 s 31.0613 -78.3929 64.7395 -78.848 s 28.4445 78.1653 51.2 80.4409 s 29.4685 -27.3067 29.4685 -27.3067 v -13.7671 s -6.71289 29.5822 -29.4685 27.3067 Z" fill="#f99f10" /><path d="M 722.83 390.144 c 0 -11.7191 -8.53333 -21.504 -19.6835 -23.552 H 304.697 c -11.1502 2.048 -19.6835 11.8329 -19.6835 23.552 v 6.25778 c 2.84445 -2.73067 6.144 -4.20978 10.3538 -4.20978 c 25.0311 0.341333 19.3422 59.2782 48.0142 58.4818 c 28.672 -0.796445 23.6658 -39.5947 43.3493 -39.0258 s 10.1262 28.1031 47.2178 33.2231 s 45.056 -48.3555 66.3325 -47.5591 c 21.3902 0.796445 32.4267 36.5227 52.3378 35.3849 c 21.1627 -1.13778 19.1147 -14.6773 39.3671 -15.4738 c 20.2525 -0.796445 35.7262 43.9182 80.4409 34.7022 c 19.1147 -3.98222 36.6365 -24.4622 50.2898 -44.2595 v -17.5218 Z" fill="#fcb429" /><path d="M 672.654 438.158 c -44.7147 9.32978 -60.1885 -35.4987 -80.4409 -34.7022 c -20.2525 0.796445 -18.3182 14.336 -39.3671 15.4738 c -19.9111 1.13778 -30.9475 -34.5885 -52.3378 -35.3849 c -21.3902 -0.796445 -29.2409 52.5653 -66.3325 47.5591 c -37.0915 -5.00622 -27.5342 -32.6542 -47.2178 -33.2231 S 372.281 436.11 343.609 436.907 c -28.672 0.796445 -22.9831 -58.1405 -48.0142 -58.4818 c -3.29955 0 -6.144 0.910222 -8.53333 2.73067 c -1.13778 2.84445 -1.82045 5.80267 -1.82045 8.98845 v 6.25778 c 2.84445 -2.73067 6.144 -4.20978 10.3538 -4.20978 c 25.0311 0.341333 19.3422 59.2782 48.0142 58.4818 c 28.672 -0.796445 23.6658 -39.5947 43.3493 -39.0258 s 10.1262 28.1031 47.2178 33.2231 s 45.056 -48.3555 66.3325 -47.5591 c 21.3902 0.796445 32.4267 36.5227 52.3378 35.3849 c 21.1627 -1.13778 19.1147 -14.6773 39.3671 -15.4738 c 20.2525 -0.796445 35.7262 43.9182 80.4409 34.7022 c 19.1147 -3.98222 36.6365 -24.4622 50.2898 -44.2595 v -13.7671 c -13.7671 19.7973 -31.1751 40.2773 -50.2898 44.2595 Z" fill="#f99f10" /><path d="M 935.595 803.043 H 72.363 c -19.2285 0 -34.9298 15.7013 -34.9298 34.9298 v 3.75467 c 27.5342 43.8045 69.9733 109.341 118.215 119.353 c 84.3093 17.5218 113.55 -67.0151 151.666 -65.4222 c 38.2293 1.59289 34.4747 26.9653 74.2969 29.1271 c 37.5467 2.048 58.368 -65.1947 98.6453 -66.7875 c 40.2773 -1.59289 55.1822 99.2142 125.155 89.6569 s 51.9965 -61.5538 89.088 -62.5778 c 37.0915 -1.024 27.7618 72.1351 81.8062 73.728 c 54.1582 1.59289 43.3493 -109.568 90.5671 -110.251 c 47.2178 -0.682667 39.8222 109.227 71.5662 112.413 c 15.36 1.47911 25.4862 -7.28178 31.8578 -16.7253 v -106.155 c 0.113778 -19.3422 -15.5875 -35.0435 -34.7022 -35.0435 Z" fill="#fcb429" /><path d="M 938.667 945.835 c -31.8578 -3.18578 -24.3485 -113.095 -71.5662 -112.413 c -47.2178 0.682667 -36.5227 111.843 -90.5671 110.251 c -54.1582 -1.59289 -44.7147 -74.752 -81.8062 -73.728 c -37.0915 1.024 -19.1147 53.0205 -89.088 62.5778 s -84.8782 -91.2498 -125.155 -89.6569 c -40.2773 1.59289 -61.0987 68.9493 -98.6453 66.7875 c -39.8222 -2.16178 -36.0675 -27.5342 -74.2969 -29.1271 c -38.2293 -1.59289 -67.3565 82.944 -151.666 65.4222 c -47.4453 -9.89867 -89.4293 -73.6142 -116.963 -117.305 c -0.796445 2.95822 -1.25155 6.03022 -1.25155 9.32978 v 3.75467 c 27.5342 43.8045 69.9733 109.341 118.215 119.353 c 84.3093 17.5218 113.55 -67.0151 151.666 -65.4222 c 38.2293 1.59289 34.4747 26.9653 74.2969 29.1271 c 37.5467 2.048 58.368 -65.1947 98.6453 -66.7875 c 40.2773 -1.59289 55.1822 99.2142 125.155 89.6569 s 51.9965 -61.5538 89.088 -62.5778 c 37.0915 -1.024 27.7618 72.1351 81.8062 73.728 c 54.1582 1.59289 43.3493 -109.568 90.5671 -110.251 c 47.2178 -0.682667 39.8222 109.227 71.5662 112.413 c 15.36 1.47911 25.4862 -7.28178 31.8578 -16.7253 v -15.0187 c -6.48533 9.44355 -16.6115 18.2045 -31.8578 16.6115 Z" fill="#f99f10" /></svg>